<svg id="Group_17" data-name="Group 17" xmlns="http://www.w3.org/2000/svg" width="20.288" height="20.289" viewBox="0 0 20.288 20.289">
  <path id="Path_23" data-name="Path 23" d="M302.778,3.463a1.772,1.772,0,0,0-.523-1.26l-1.68-1.68A1.823,1.823,0,0,0,299.3,0h-.1V3.567h3.578v-.1Z" transform="translate(-287.343 0)" fill="#ff829a"/>
  <path id="Path_24" data-name="Path 24" d="M13.874,15.277l-1.89.63-.289.016a1.485,1.485,0,0,1-1.407-1.958l.567-1.7a2.424,2.424,0,0,1,.571-.927l4.026-4.006V4.755H11.274a.577.577,0,0,1-.575-.594V0H1.783A1.786,1.786,0,0,0,0,1.783V18.506a1.786,1.786,0,0,0,1.783,1.783H13.652a1.8,1.8,0,0,0,1.8-1.783V14.068l-.654.638A2.291,2.291,0,0,1,13.874,15.277ZM2.972,5.944h8.3a.594.594,0,0,1,0,1.189h-8.3a.594.594,0,0,1,0-1.189Zm0,2.378H8.9a.594.594,0,0,1,0,1.189H2.972a.594.594,0,0,1,0-1.189Zm0,2.378H8.9a.594.594,0,1,1,0,1.189H2.972a.594.594,0,1,1,0-1.189Zm-.594,2.972a.594.594,0,0,1,.594-.594H8.9a.594.594,0,0,1,0,1.189H2.972A.594.594,0,0,1,2.378,13.672Zm8.9,4.161H7.708a.594.594,0,0,1,0-1.189h3.567a.594.594,0,1,1,0,1.189Z" fill="#ff829a"/>
  <path id="Path_25" data-name="Path 25" d="M288.08,324.63l1.549-.519-1.411-1.411-.515,1.553A.3.3,0,0,0,288.08,324.63Z" transform="translate(-276.286 -309.912)" fill="#ff829a"/>
  <path id="Path_26" data-name="Path 26" d="M318.8,203.215l1.688,1.688,3.915-3.915-1.688-1.688Z" transform="translate(-306.167 -191.402)" fill="#ff829a"/>
  <path id="Path_27" data-name="Path 27" d="M441.352,148.329a1.189,1.189,0,0,0-.844-.329,1.175,1.175,0,0,0-.844.333l-.864.864,1.688,1.688.864-.864A1.2,1.2,0,0,0,441.352,148.329Z" transform="translate(-421.411 -142.135)" fill="#ff829a"/>
  <path id="Path_28" data-name="Path 28" d="M503.2,198.612Z" transform="translate(-483.259 -190.73)" fill="#ff829a"/>
</svg>
