<svg id="Group_65" data-name="Group 65" xmlns="http://www.w3.org/2000/svg" xmlns:xlink="http://www.w3.org/1999/xlink" width="25.121" height="20.336" viewBox="0 0 25.121 20.336">
  <defs>
    <clipPath id="clip-path">
      <rect id="Rectangle_62" data-name="Rectangle 62" width="25.121" height="20.336" fill="#356e9a"/>
    </clipPath>
  </defs>
  <g id="Group_64" data-name="Group 64">
    <g id="Group_63" data-name="Group 63" clip-path="url(#clip-path)">
      <path id="Path_83" data-name="Path 83" d="M12.441,3.708c4.127.06,6.759-.239,7.118,4.366h5.084C24.583.957,18.362,0,12.321,0,6.22,0,0,.957,0,8.075H5.024c.419-4.665,3.29-4.426,7.417-4.366Zm0,0" fill="#356e9a"/>
    </g>
  </g>
  <path id="Path_84" data-name="Path 84" d="M2.512,16.175c1.256,0,2.273.06,2.512-1.136a1.656,1.656,0,0,0,.06-.538H0c0,1.794,1.136,1.675,2.512,1.675Zm0,0" transform="translate(0 -5.827)" fill="#356e9a"/>
  <path id="Path_85" data-name="Path 85" d="M32.682,14.5h0a1.582,1.582,0,0,0,0,.538c.239,1.136,1.256,1.077,2.512,1.077,1.376,0,2.512.12,2.512-1.615Zm0,0" transform="translate(-13.124 -5.827)" fill="#356e9a"/>
  <path id="Path_86" data-name="Path 86" d="M18.312,11.677v-.718c0-.3-.359-.359-.837-.359h-.718c-.478,0-.837,0-.837.359v1.077H10.656V10.959c0-.3-.359-.359-.837-.359H9.1c-.478,0-.837,0-.837.359v1.316A54.674,54.674,0,0,0,3,19.452v4.306a.691.691,0,0,0,.718.718h19.14a.691.691,0,0,0,.718-.718V19.452a54.673,54.673,0,0,0-5.263-7.177ZM10.357,20.11a.718.718,0,1,1,.718-.718.727.727,0,0,1-.718.718Zm0-2.392A.718.718,0,1,1,11.075,17a.727.727,0,0,1-.718.718Zm0-2.392a.718.718,0,1,1,.718-.718.727.727,0,0,1-.718.718Zm2.871,4.785a.718.718,0,1,1,.718-.718.727.727,0,0,1-.718.718Zm0-2.392A.718.718,0,1,1,13.946,17a.727.727,0,0,1-.718.718Zm0-2.392a.718.718,0,1,1,.718-.718.727.727,0,0,1-.718.718ZM16.1,20.11a.718.718,0,1,1,.718-.718.727.727,0,0,1-.718.718Zm0-2.392A.718.718,0,1,1,16.816,17a.727.727,0,0,1-.718.718Zm0-2.392a.718.718,0,1,1,.718-.718.727.727,0,0,1-.718.718Zm0,0" transform="translate(-1.206 -4.26)" fill="#356e9a"/>
</svg>
