<svg id="Group_20" data-name="Group 20" xmlns="http://www.w3.org/2000/svg" xmlns:xlink="http://www.w3.org/1999/xlink" width="20.391" height="20.41" viewBox="0 0 20.391 20.41">
  <defs>
    <clipPath id="clip-path">
      <rect id="Rectangle_14" data-name="Rectangle 14" width="20.391" height="20.41" fill="#ffd1b0"/>
    </clipPath>
  </defs>
  <g id="Group_19" data-name="Group 19">
    <g id="Group_18" data-name="Group 18" clip-path="url(#clip-path)">
      <path id="Path_29" data-name="Path 29" d="M20.237,9.1a.663.663,0,0,0-.652-.5,2.242,2.242,0,0,1-1.54-3.9.569.569,0,0,0,.066-.765A10.056,10.056,0,0,0,16.5,2.305a.563.563,0,0,0-.775.066,2.339,2.339,0,0,1-2.532.567,2.246,2.246,0,0,1-1.37-2.2.563.563,0,0,0-.5-.6A10.277,10.277,0,0,0,9.04.132a.562.562,0,0,0-.5.586A2.262,2.262,0,0,1,7.15,2.882a2.333,2.333,0,0,1-2.513-.576.568.568,0,0,0-.765-.066A10.288,10.288,0,0,0,2.228,3.864a.57.57,0,0,0,.057.775,2.246,2.246,0,0,1,.567,2.532A2.352,2.352,0,0,1,.64,8.542a.556.556,0,0,0-.586.5,9.9,9.9,0,0,0,0,2.306.678.678,0,0,0,.671.5,2.238,2.238,0,0,1,2.088,1.389,2.263,2.263,0,0,1-.567,2.513.568.568,0,0,0-.066.765,9.684,9.684,0,0,0,1.606,1.625.57.57,0,0,0,.775-.057,2.339,2.339,0,0,1,2.532-.567,2.246,2.246,0,0,1,1.37,2.2.563.563,0,0,0,.5.6,9.632,9.632,0,0,0,1.172.066,8.826,8.826,0,0,0,1.115-.066.562.562,0,0,0,.5-.586,2.248,2.248,0,0,1,1.389-2.164,2.333,2.333,0,0,1,2.513.576.568.568,0,0,0,.765.066,9.907,9.907,0,0,0,1.644-1.625.57.57,0,0,0-.057-.775,2.246,2.246,0,0,1-.567-2.532,2.285,2.285,0,0,1,2.079-1.38h.123a.569.569,0,0,0,.6-.5,10.365,10.365,0,0,0,0-2.3ZM10.165,13.635a3.392,3.392,0,1,1,3.392-3.392,3.4,3.4,0,0,1-3.392,3.392Zm0,0" transform="translate(0.012 -0.066)" fill="#ffd1b0" fill-rule="evenodd"/>
    </g>
  </g>
</svg>
