<svg id="Group_61" data-name="Group 61" xmlns="http://www.w3.org/2000/svg" xmlns:xlink="http://www.w3.org/1999/xlink" width="20" height="20" viewBox="0 0 20 20">
  <defs>
    <clipPath id="clip-path">
      <rect id="Rectangle_61" data-name="Rectangle 61" width="20" height="20" fill="#356e9a"/>
    </clipPath>
  </defs>
  <g id="Group_60" data-name="Group 60">
    <g id="Group_59" data-name="Group 59" clip-path="url(#clip-path)">
      <path id="Path_82" data-name="Path 82" d="M19.9,15.758a.962.962,0,0,1-.3.847L16.795,19.4a1.565,1.565,0,0,1-.5.359,1.959,1.959,0,0,1-.6.19l-.125.009a2.521,2.521,0,0,1-.276.009,9.97,9.97,0,0,1-1.3-.138,9.662,9.662,0,0,1-2.2-.678,18.257,18.257,0,0,1-2.95-1.62A21.871,21.871,0,0,1,5.33,14.566a23.441,23.441,0,0,1-2.454-2.79A20.049,20.049,0,0,1,1.313,9.313a13.665,13.665,0,0,1-.89-2.052,11.633,11.633,0,0,1-.4-1.581A5.473,5.473,0,0,1-.065,4.635c.013-.255.022-.393.022-.423a2.124,2.124,0,0,1,.19-.6,1.635,1.635,0,0,1,.359-.5L3.322.3A.932.932,0,0,1,4,0a.788.788,0,0,1,.488.16,1.424,1.424,0,0,1,.359.393L7.11,4.847a1.012,1.012,0,0,1,.1.739,1.343,1.343,0,0,1-.359.678L5.818,7.3a.342.342,0,0,0-.073.138.509.509,0,0,0-.03.16,3.731,3.731,0,0,0,.38,1.015,9.422,9.422,0,0,0,.782,1.235,13.521,13.521,0,0,0,1.5,1.68,13.763,13.763,0,0,0,1.693,1.512,10.528,10.528,0,0,0,1.235.795,3.3,3.3,0,0,0,.76.307l.263.052a.469.469,0,0,0,.138-.03.4.4,0,0,0,.138-.073l1.205-1.227a1.3,1.3,0,0,1,.89-.337,1.116,1.116,0,0,1,.57.125H15.3l4.082,2.41a1.042,1.042,0,0,1,.527.7Zm0,0" transform="translate(0.065)" fill="#356e9a"/>
    </g>
  </g>
</svg>
