<svg id="Group_68" data-name="Group 68" xmlns="http://www.w3.org/2000/svg" width="18.9" height="18.9" viewBox="0 0 18.9 18.9">
  <path id="Path_87" data-name="Path 87" d="M9.4,0a9.45,9.45,0,0,0,0,18.9A9.45,9.45,0,1,0,9.4,0Zm2,14.6c-.5.2-.9.3-1.2.4a2.958,2.958,0,0,1-1,.2,2.116,2.116,0,0,1-1.4-.4,1.606,1.606,0,0,1-.5-1.1v-.5c0-.2.1-.4.1-.6L8,10.4a1.268,1.268,0,0,0,.1-.6,4.331,4.331,0,0,1,.1-.5A.845.845,0,0,0,8,8.7c.1,0-.2-.1-.5-.1a.9.9,0,0,0-.5.1c-.1,0-.3.1-.4.1l.2-.7a3.582,3.582,0,0,0,1.1-.4,4.4,4.4,0,0,1,1-.2,2.116,2.116,0,0,1,1.4.4A1.433,1.433,0,0,1,10.8,9v.5c0,.2-.1.5-.1.6L10,12.4a3.536,3.536,0,0,0-.1.6,4.331,4.331,0,0,1-.1.5.845.845,0,0,0,.2.6.956.956,0,0,0,.7.2,1.087,1.087,0,0,0,.5-.1.756.756,0,0,1,.4-.1Zm-.1-8.7a1.284,1.284,0,0,1-1,.4,1.284,1.284,0,0,1-1-.4A1.05,1.05,0,0,1,8.8,5a1.284,1.284,0,0,1,.4-1,1.284,1.284,0,0,1,1-.4,1.284,1.284,0,0,1,1,.4,1.284,1.284,0,0,1,.4,1,.759.759,0,0,1-.3.9Zm0,0" fill="#356e9a"/>
</svg>
