<svg id="Group_73" data-name="Group 73" xmlns="http://www.w3.org/2000/svg" xmlns:xlink="http://www.w3.org/1999/xlink" width="18.9" height="18.853" viewBox="0 0 18.9 18.853">
  <defs>
    <clipPath id="clip-path">
      <rect id="Rectangle_70" data-name="Rectangle 70" width="18.9" height="18.853" fill="#356e9a"/>
    </clipPath>
  </defs>
  <g id="Group_72" data-name="Group 72">
    <g id="Group_70" data-name="Group 70" clip-path="url(#clip-path)">
      <path id="Path_88" data-name="Path 88" d="M17.444,49.273a.473.473,0,0,0-.471.471v4.181a1.418,1.418,0,0,1-1.414,1.414H2.352A1.418,1.418,0,0,1,.938,53.925V41.657a1.418,1.418,0,0,1,1.414-1.414H6.533a.471.471,0,1,0,0-.943H2.352A2.363,2.363,0,0,0,0,41.657V53.925a2.352,2.352,0,0,0,2.352,2.352H15.558a2.352,2.352,0,0,0,2.352-2.352V49.745a.466.466,0,0,0-.467-.471Zm0,0" transform="translate(0 -37.448)" fill="#356e9a"/>
    </g>
    <g id="Group_71" data-name="Group 71" clip-path="url(#clip-path)">
      <path id="Path_89" data-name="Path 89" d="M120.654,1.122a2.116,2.116,0,0,0-3,0l-8.394,8.4a.486.486,0,0,0-.123.207l-1.1,3.987a.457.457,0,0,0,.123.457.482.482,0,0,0,.457.123l3.987-1.1a.443.443,0,0,0,.207-.123l8.4-8.4a2.125,2.125,0,0,0,0-3Zm-10.364,8.7,6.872-6.872,2.215,2.215L112.5,12.043Zm-.443.891,1.772,1.772-2.451.679ZM120.541,4l-.5.5-2.215-2.215.5-.5a1.181,1.181,0,0,1,1.664,0l.551.551a1.172,1.172,0,0,1,0,1.664Zm0,0" transform="translate(-102.927 -0.476)" fill="#356e9a"/>
    </g>
  </g>
</svg>
