<svg xmlns="http://www.w3.org/2000/svg" width="20.803" height="20.473" viewBox="0 0 20.803 20.473">
  <g id="Group_24" data-name="Group 24" transform="translate(68 -377)">
    <g id="Group_22" data-name="Group 22" transform="translate(-62.018 382.792)">
      <path id="Path_47" data-name="Path 47" d="M0,120.9H8.831a3.307,3.307,0,0,0-3.3-3.3H3.286A3.3,3.3,0,0,0,0,120.9Z" transform="translate(0 -112.016)" fill="#eee3ec"/>
      <circle id="Ellipse_2" data-name="Ellipse 2" cx="2.298" cy="2.298" r="2.298" transform="translate(2.108 0)" fill="#eee3ec"/>
    </g>
    <g id="Group_23" data-name="Group 23" transform="translate(-68 377)">
      <path id="Path_48" data-name="Path 48" d="M.7,10.939a.7.7,0,0,0,.7-.7,8.883,8.883,0,0,1,8.869-8.869A8.784,8.784,0,0,1,17.624,5.3l-.8-.3a.691.691,0,0,0-.494,1.291l2.507.988a.649.649,0,0,0,.532,0,.72.72,0,0,0,.4-.418l.988-2.507a.691.691,0,1,0-1.291-.494l-.418,1.083a10.022,10.022,0,0,0-3.058-3.191A10.225,10.225,0,0,0,3.039,3,10.1,10.1,0,0,0,0,10.236.714.714,0,0,0,.7,10.939Z" fill="#eee3ec"/>
      <path id="Path_49" data-name="Path 49" d="M20.317,200.8a.7.7,0,0,0-.7.7,8.883,8.883,0,0,1-8.869,8.869,8.784,8.784,0,0,1-7.35-3.931l.8.323a.691.691,0,1,0,.494-1.291l-2.507-.988a.649.649,0,0,0-.532,0,.72.72,0,0,0-.4.418L.3,207.39a.691.691,0,1,0,1.291.494l.418-1.083a10.022,10.022,0,0,0,3.058,3.191A10.238,10.238,0,0,0,21.019,201.5.714.714,0,0,0,20.317,200.8Z" transform="translate(-0.242 -191.266)" fill="#eee3ec"/>
    </g>
  </g>
</svg>
