<svg xmlns="http://www.w3.org/2000/svg" width="20.411" height="20.411" viewBox="0 0 20.411 20.411">
  <path id="Path_30" data-name="Path 30" d="M19.68,5.1H16.037V.73a.73.73,0,0,0-.73-.73H.73A.727.727,0,0,0,0,.73V17.494a2.918,2.918,0,0,0,2.917,2.917H17.494a2.918,2.918,0,0,0,2.917-2.917V5.83A.729.729,0,0,0,19.68,5.1ZM5.83,3.643H10.2a.73.73,0,0,1,0,1.461H5.83a.73.73,0,1,1,0-1.461Zm6.56,13.851H3.643a.73.73,0,1,1,0-1.461H12.39a.73.73,0,1,1,0,1.461Zm0-2.917H3.643a.73.73,0,0,1,0-1.461H12.39a.73.73,0,1,1,0,1.461Zm0-2.913H3.643a.73.73,0,1,1,0-1.461H12.39a.73.73,0,1,1,0,1.461Zm0-2.917H3.643a.73.73,0,1,1,0-1.461H12.39a.73.73,0,1,1,0,1.461Zm6.56,8.747a1.456,1.456,0,1,1-2.913,0V6.56h2.917V17.494Z" fill="#bdeccf"/>
</svg>
