<svg id="Group_25" data-name="Group 25" xmlns="http://www.w3.org/2000/svg" width="20.803" height="12.686" viewBox="0 0 20.803 12.686">
  <path id="Path_50" data-name="Path 50" d="M183.471,19.842a2.371,2.371,0,1,0-2.371-2.371,2.373,2.373,0,0,0,2.371,2.371Zm0-3.794" transform="translate(-166.786 -13.907)" fill="#16d9e8"/>
  <path id="Path_51" data-name="Path 51" d="M19.971,19.842A2.371,2.371,0,1,0,17.6,17.471a2.378,2.378,0,0,0,2.371,2.371Zm0-3.794" transform="translate(-16.209 -13.907)" fill="#16d9e8"/>
  <path id="Path_52" data-name="Path 52" d="M93.85,6.11A3.055,3.055,0,1,0,90.8,3.051,3.053,3.053,0,0,0,93.85,6.11Zm0-5.161" transform="translate(-83.623)" fill="#16d9e8"/>
  <path id="Path_53" data-name="Path 53" d="M69.353,89.3A5.159,5.159,0,0,0,64.2,94.453a.476.476,0,0,0,.474.474h9.35a.476.476,0,0,0,.474-.474A5.152,5.152,0,0,0,69.353,89.3Zm-4.181,4.679" transform="translate(-59.126 -82.242)" fill="#16d9e8"/>
  <path id="Path_54" data-name="Path 54" d="M3.762,94.3A3.761,3.761,0,0,0,0,98.062a.351.351,0,0,0,.348.348H7.177a.351.351,0,0,0,.348-.348A3.766,3.766,0,0,0,3.762,94.3ZM.711,97.714" transform="translate(0 -86.847)" fill="#16d9e8"/>
  <path id="Path_55" data-name="Path 55" d="M171.762,94.3A3.771,3.771,0,0,0,168,98.062a.351.351,0,0,0,.348.348h6.829a.351.351,0,0,0,.348-.348,3.766,3.766,0,0,0-3.762-3.762Zm-3.051,3.414" transform="translate(-154.722 -86.847)" fill="#16d9e8"/>
</svg>
