<svg xmlns="http://www.w3.org/2000/svg" xmlns:xlink="http://www.w3.org/1999/xlink" width="30.952" height="30.952" viewBox="0 0 30.952 30.952">
  <defs>
    <clipPath id="clip-path">
      <rect id="Rectangle_2" data-name="Rectangle 2" width="15.45" height="20.309" fill="#356e9a"/>
    </clipPath>
  </defs>
  <g id="Group_12" data-name="Group 12" transform="translate(-251 -76)">
    <g id="Group_5" data-name="Group 5" transform="translate(258.695 81.301)">
      <g id="Group_4" data-name="Group 4" transform="translate(0.007)">
        <g id="Group_2" data-name="Group 2" clip-path="url(#clip-path)">
          <path id="Path_1" data-name="Path 1" d="M54.191,9.837c2.256,0,4.091-2.227,4.091-4.969S57.68-.1,54.191-.1,50.1,2.134,50.1,4.876s1.835,4.961,4.091,4.961Zm0,0" transform="translate(-46.466 0.093)" fill="#356e9a"/>
        </g>
        <g id="Group_3" data-name="Group 3" clip-path="url(#clip-path)">
          <path id="Path_2" data-name="Path 2" d="M0,240.391Zm0,0" transform="translate(0 -222.874)" fill="#356e9a"/>
        </g>
      </g>
      <path id="Path_3" data-name="Path 3" d="M15.342,149.2c-.073-4.78-.7-6.136-5.476-7a2.872,2.872,0,0,1-2.241.856,2.872,2.872,0,0,1-2.241-.856c-4.722.856-5.382,2.191-5.469,6.847-.007.377-.007.4-.015.355v.5S1.039,152.2,7.625,152.2,15.35,149.9,15.35,149.9v-.37c0,.029,0-.029-.007-.334Zm0,0" transform="translate(0.1 -131.886)" fill="#356e9a"/>
    </g>
    <g id="Path_20" data-name="Path 20" transform="translate(251 76)" fill="none" stroke-linecap="round">
      <path d="M15.476,0A15.476,15.476,0,1,1,0,15.476,15.476,15.476,0,0,1,15.476,0Z" stroke="none"/>
      <path d="M 15.47591876983643 1.999998092651367 C 11.87636947631836 1.999998092651367 8.492269515991211 3.401739120483398 5.94700813293457 5.94700813293457 C 3.401739120483398 8.492269515991211 1.999998092651367 11.87636947631836 1.999998092651367 15.47591876983643 C 1.999998092651367 19.07546997070312 3.401739120483398 22.45956802368164 5.94700813293457 25.00482940673828 C 8.492269515991211 27.55009841918945 11.87636947631836 28.95183944702148 15.47591876983643 28.95183944702148 C 19.07546997070312 28.95183944702148 22.45956802368164 27.55009841918945 25.00482940673828 25.00482940673828 C 27.55009841918945 22.45956802368164 28.95183944702148 19.07546997070312 28.95183944702148 15.47591876983643 C 28.95183944702148 11.87636947631836 27.55009841918945 8.492269515991211 25.00482940673828 5.94700813293457 C 22.45956802368164 3.401739120483398 19.07546997070312 1.999998092651367 15.47591876983643 1.999998092651367 M 15.47591876983643 -1.9073486328125e-06 C 24.02302932739258 -1.9073486328125e-06 30.95183944702148 6.928808212280273 30.95183944702148 15.47591876983643 C 30.95183944702148 24.02302932739258 24.02302932739258 30.95183944702148 15.47591876983643 30.95183944702148 C 6.928808212280273 30.95183944702148 -1.9073486328125e-06 24.02302932739258 -1.9073486328125e-06 15.47591876983643 C -1.9073486328125e-06 6.928808212280273 6.928808212280273 -1.9073486328125e-06 15.47591876983643 -1.9073486328125e-06 Z" stroke="none" fill="#356e9a"/>
    </g>
  </g>
</svg>
