<svg id="Group_100" data-name="Group 100" xmlns="http://www.w3.org/2000/svg" xmlns:xlink="http://www.w3.org/1999/xlink" width="24.027" height="24.606" viewBox="0 0 24.027 24.606">
  <defs>
    <clipPath id="clip-path">
      <rect id="Rectangle_36" data-name="Rectangle 36" width="24.027" height="24.606" fill="#356e9a"/>
    </clipPath>
  </defs>
  <path id="Path_65" data-name="Path 65" d="M92.365,207.06a.561.561,0,0,0-.56-.56H89.86a.561.561,0,0,0-.56.56V209a.561.561,0,0,0,.56.56H91.8a.561.561,0,0,0,.56-.56Zm0,0" transform="translate(-83.68 -193.505)" fill="#356e9a"/>
  <path id="Path_66" data-name="Path 66" d="M169.665,207.06a.561.561,0,0,0-.56-.56H167.16a.561.561,0,0,0-.56.56V209a.561.561,0,0,0,.56.56H169.1a.561.561,0,0,0,.56-.56Zm0,0" transform="translate(-156.116 -193.505)" fill="#356e9a"/>
  <path id="Path_67" data-name="Path 67" d="M246.965,207.06a.561.561,0,0,0-.56-.56H244.46a.561.561,0,0,0-.56.56V209a.561.561,0,0,0,.56.56H246.4a.561.561,0,0,0,.56-.56Zm0,0" transform="translate(-228.551 -193.505)" fill="#356e9a"/>
  <path id="Path_68" data-name="Path 68" d="M92.365,284.46a.561.561,0,0,0-.56-.56H89.86a.561.561,0,0,0-.56.56V286.4a.561.561,0,0,0,.56.56H91.8a.561.561,0,0,0,.56-.56Zm0,0" transform="translate(-83.68 -266.034)" fill="#356e9a"/>
  <path id="Path_69" data-name="Path 69" d="M169.665,284.46a.561.561,0,0,0-.56-.56H167.16a.561.561,0,0,0-.56.56V286.4a.561.561,0,0,0,.56.56H169.1a.561.561,0,0,0,.56-.56Zm0,0" transform="translate(-156.116 -266.034)" fill="#356e9a"/>
  <g id="Group_37" data-name="Group 37" transform="translate(0 0)">
    <g id="Group_35" data-name="Group 35" clip-path="url(#clip-path)">
      <path id="Path_70" data-name="Path 70" d="M246.965,284.46a.561.561,0,0,0-.56-.56H244.46a.561.561,0,0,0-.56.56V286.4a.561.561,0,0,0,.56.56H246.4a.561.561,0,0,0,.56-.56Zm0,0" transform="translate(-228.551 -266.034)" fill="#356e9a"/>
    </g>
    <g id="Group_36" data-name="Group 36" clip-path="url(#clip-path)">
      <path id="Path_71" data-name="Path 71" d="M21.893,43.313v2.97a2.428,2.428,0,0,1-2.435,2.429H17.922a2.439,2.439,0,0,1-2.448-2.429V43.3H8.558v2.983A2.443,2.443,0,0,1,6.11,48.712H4.575A2.432,2.432,0,0,1,2.14,46.283v-2.97A2.213,2.213,0,0,0,0,45.515V62.934a2.216,2.216,0,0,0,2.2,2.215H21.83a2.216,2.216,0,0,0,2.2-2.215V45.515a2.213,2.213,0,0,0-2.14-2.2Zm-.717,18.539a.949.949,0,0,1-.95.95H3.763a.949.949,0,0,1-.95-.95v-9a.949.949,0,0,1,.95-.95H20.226a.949.949,0,0,1,.95.95Zm0,0" transform="translate(0 -40.575)" fill="#356e9a"/>
    </g>
  </g>
  <path id="Path_72" data-name="Path 72" d="M60.137,6.545h1.517a.841.841,0,0,0,.837-.837V.837A.837.837,0,0,0,61.654,0H60.137A.837.837,0,0,0,59.3.837V5.708a.837.837,0,0,0,.837.837Zm0,0" transform="translate(-55.568 0)" fill="#356e9a"/>
  <path id="Path_73" data-name="Path 73" d="M272.037,6.545h1.517a.837.837,0,0,0,.837-.837V.837A.837.837,0,0,0,273.554,0h-1.517a.837.837,0,0,0-.837.837V5.708a.841.841,0,0,0,.837.837Zm0,0" transform="translate(-254.133 0)" fill="#356e9a"/>
</svg>
