<svg xmlns="http://www.w3.org/2000/svg" width="23.243" height="23.244" viewBox="0 0 23.243 23.244">
  <g id="Group_99" data-name="Group 99" transform="translate(-0.001)">
    <g id="Group_98" data-name="Group 98" transform="translate(0.001)">
      <path id="Path_106" data-name="Path 106" d="M304.65,301.576l-5.332-5.333a10.263,10.263,0,0,1-3.082,3.081l5.333,5.333a2.179,2.179,0,0,0,3.081-3.081Z" transform="translate(-282.045 -282.052)" fill="#fff"/>
      <path id="Path_107" data-name="Path 107" d="M17.434,8.716a8.716,8.716,0,1,0-8.716,8.716A8.717,8.717,0,0,0,17.434,8.716ZM8.717,15.253a6.537,6.537,0,1,1,6.537-6.537A6.544,6.544,0,0,1,8.717,15.253Z" transform="translate(-0.001)" fill="#fff"/>
      <path id="Path_108" data-name="Path 108" d="M75.817,80.9H77.27A3.636,3.636,0,0,1,80.9,77.269V75.816A5.091,5.091,0,0,0,75.817,80.9Z" transform="translate(-72.185 -72.184)" fill="#fff"/>
    </g>
  </g>
</svg>
